<?xml version="1.0" standalone="no"?>
<!DOCTYPE svg PUBLIC "-//W3C//DTD SVG 20010904//EN"
 "http://www.w3.org/TR/2001/REC-SVG-20010904/DTD/svg10.dtd">
<svg version="1.0" xmlns="http://www.w3.org/2000/svg"
 width="512.000000pt" height="512.000000pt" viewBox="0 0 512.000000 512.000000"
 preserveAspectRatio="xMidYMid meet">
<metadata>
Created by potrace 1.16, written by Peter Selinger 2001-2019
</metadata>
<g transform="translate(0.000000,512.000000) scale(0.100000,-0.100000)"
fill="#000000" stroke="none">
<path d="M31 2924 c-26 -21 -31 -33 -31 -68 0 -37 23 -82 171 -337 94 -162
184 -306 200 -321 39 -37 86 -37 128 -2 17 14 31 32 31 39 0 8 -34 72 -76 144
l-75 130 45 78 c26 43 46 81 46 85 0 4 -44 9 -97 10 l-97 3 -28 48 -27 47 158
0 159 0 46 80 c25 43 46 82 46 85 0 3 -128 5 -284 5 l-284 0 -31 -26z"/>
<path d="M617 2730 l-128 -220 48 -84 c26 -47 51 -82 55 -80 3 2 68 109 142
237 153 262 160 285 107 338 -21 20 -39 29 -63 29 -33 0 -35 -4 -161 -220z"/>
<path d="M3510 2861 c-51 -16 -108 -51 -135 -83 -53 -63 -69 -114 -70 -218 0
-84 3 -102 28 -152 50 -102 128 -149 258 -156 104 -5 177 13 232 59 41 34 84
109 89 155 l3 29 -86 3 -86 3 -19 -42 c-47 -106 -171 -104 -223 3 -42 88 -18
215 51 258 67 42 153 10 179 -67 l11 -34 86 3 87 3 -3 29 c-5 46 -48 121 -89
155 -21 17 -60 38 -87 46 -52 16 -183 19 -226 6z"/>
<path d="M4151 2849 c-115 -45 -176 -145 -176 -289 0 -147 61 -245 181 -290
87 -32 216 -26 297 14 101 49 150 140 150 276 0 136 -49 227 -150 276 -50 25
-72 29 -153 31 -77 2 -105 -1 -149 -18z m199 -124 c95 -49 107 -231 19 -310
-125 -112 -277 72 -199 242 33 73 112 103 180 68z"/>
<path d="M1085 2848 c-3 -7 -4 -141 -3 -298 l3 -285 82 -3 82 -3 3 123 3 123
103 3 103 3 -3 57 -3 57 -103 3 -103 3 3 52 3 52 103 3 103 3 -3 57 -3 57
-183 3 c-141 2 -184 0 -187 -10z"/>
<path d="M1560 2560 l0 -300 185 0 185 0 0 60 0 59 -97 3 -98 3 -5 235 -5 235
-82 3 -83 3 0 -301z"/>
<path d="M2153 2844 c-19 -51 -160 -570 -157 -576 3 -5 43 -8 89 -8 l85 0 6
40 c9 52 22 62 85 58 l53 -3 11 -45 11 -45 87 -3 c62 -2 87 1 87 9 0 10 -93
352 -146 537 l-15 52 -95 0 c-78 0 -96 -3 -101 -16z m140 -336 c7 -28 7 -28
-39 -28 l-46 0 7 38 c3 20 14 69 22 107 l16 70 17 -80 c9 -44 20 -92 23 -107z"/>
<path d="M2527 2853 c-4 -3 -7 -30 -7 -59 l0 -53 58 -3 57 -3 5 -235 5 -235
85 0 85 0 3 237 2 237 58 3 c57 3 57 3 60 37 2 19 1 44 -2 57 l-6 24 -199 0
c-109 0 -201 -3 -204 -7z"/>
<path d="M3045 2847 c-3 -7 -4 -140 -3 -297 l3 -285 80 0 80 0 3 289 c2 225
-1 291 -10 298 -22 13 -148 10 -153 -5z"/>
<path d="M4700 2560 l0 -301 73 3 72 3 5 132 5 133 73 -135 74 -135 59 0 59 0
0 300 0 301 -72 -3 -73 -3 -5 -132 -5 -132 -74 135 -75 134 -58 0 -58 0 0
-300z"/>
</g>
</svg>
