<?xml version="1.0" standalone="no"?>
<!DOCTYPE svg PUBLIC "-//W3C//DTD SVG 20010904//EN"
 "http://www.w3.org/TR/2001/REC-SVG-20010904/DTD/svg10.dtd">
<svg version="1.0" xmlns="http://www.w3.org/2000/svg"
 width="512.000000pt" height="512.000000pt" viewBox="0 0 512.000000 512.000000"
 preserveAspectRatio="xMidYMid meet">
<metadata>
Created by potrace 1.16, written by Peter Selinger 2001-2019
</metadata>
<g transform="translate(0.000000,512.000000) scale(0.100000,-0.100000)"
fill="#000000" stroke="none">
<path d="M512 5100 c-236 -62 -432 -259 -492 -496 -20 -76 -20 -119 -20 -2043
0 -2187 -5 -2022 70 -2176 66 -137 178 -249 315 -315 154 -75 -11 -70 2175
-70 2186 0 2021 -5 2175 70 179 87 316 254 365 446 20 76 20 119 20 2044 0
1925 0 1968 -20 2044 -61 239 -257 435 -496 496 -76 20 -118 20 -2048 19
-1906 0 -1973 -1 -2044 -19z m2189 -1020 c213 -22 369 -65 556 -155 446 -213
756 -605 866 -1093 18 -83 21 -128 21 -312 0 -184 -3 -229 -21 -312 -93 -411
-321 -745 -671 -979 -156 -104 -388 -207 -436 -193 -56 17 -56 16 -56 293 0
289 -11 365 -60 445 -17 27 -29 49 -28 51 2 1 38 7 82 13 43 7 119 26 169 43
294 98 438 308 454 659 8 191 -26 315 -118 438 -37 48 -40 56 -30 83 21 61 24
172 7 258 -24 119 -31 131 -78 131 -22 0 -60 -5 -86 -11 -57 -14 -199 -78
-263 -120 l-47 -30 -114 22 c-161 32 -415 32 -576 1 l-113 -23 -58 35 c-127
78 -260 126 -346 126 l-41 0 -19 -57 c-24 -74 -31 -217 -16 -304 l12 -67 -36
-47 c-95 -126 -133 -277 -116 -473 19 -214 73 -346 190 -463 59 -60 95 -85
161 -117 86 -41 197 -75 286 -87 77 -10 80 -12 57 -38 -28 -30 -50 -75 -63
-130 -13 -48 -21 -55 -105 -76 -86 -23 -183 -6 -256 45 -21 15 -67 64 -100
110 -62 84 -104 121 -171 149 -41 16 -125 20 -147 6 -26 -17 -4 -56 55 -96 69
-48 119 -113 172 -226 45 -94 90 -142 169 -182 86 -43 222 -59 331 -38 l42 8
0 -137 c0 -123 -2 -140 -20 -163 -11 -14 -29 -29 -40 -32 -30 -9 -108 19 -255
91 -436 214 -740 603 -848 1082 -18 82 -21 129 -22 307 0 226 7 278 57 450
170 577 697 1024 1303 1104 168 23 229 24 366 11z"/>
</g>
</svg>
