<?xml version="1.0" standalone="no"?>
<!DOCTYPE svg PUBLIC "-//W3C//DTD SVG 20010904//EN"
 "http://www.w3.org/TR/2001/REC-SVG-20010904/DTD/svg10.dtd">
<svg version="1.0" xmlns="http://www.w3.org/2000/svg"
 width="512.000000pt" height="512.000000pt" viewBox="0 0 512.000000 512.000000"
 preserveAspectRatio="xMidYMid meet">
<metadata>
Created by potrace 1.16, written by Peter Selinger 2001-2019
</metadata>
<g transform="translate(0.000000,512.000000) scale(0.100000,-0.100000)"
fill="#000000" stroke="none">
<path d="M864 5109 c-77 -13 -211 -57 -284 -94 -263 -133 -456 -366 -547 -660
l-28 -90 0 -1705 0 -1705 28 -90 c112 -363 369 -620 732 -732 l90 -28 1705 0
1705 0 90 28 c363 112 620 369 732 732 l28 90 0 1705 0 1705 -28 90 c-112 363
-369 620 -732 732 l-90 28 -1675 1 c-921 1 -1698 -2 -1726 -7z m2283 -2036
l-587 -588 -587 588 -588 587 1175 0 1175 0 -588 -587z m-1662 37 l450 -450
-452 -452 c-249 -249 -456 -449 -460 -444 -10 9 -17 1668 -8 1744 4 28 10 52
13 52 4 0 210 -203 457 -450z m2620 398 c9 -76 2 -1735 -8 -1744 -4 -5 -211
195 -460 444 l-452 452 450 450 c247 247 453 450 457 450 3 0 9 -24 13 -52z
m-1743 -1275 l198 -198 200 200 200 200 388 -388 387 -387 -1175 0 -1175 0
385 385 c212 212 387 385 390 385 3 0 94 -89 202 -197z"/>
</g>
</svg>
