<?xml version="1.0" standalone="no"?>
<!DOCTYPE svg PUBLIC "-//W3C//DTD SVG 20010904//EN"
 "http://www.w3.org/TR/2001/REC-SVG-20010904/DTD/svg10.dtd">
<svg version="1.0" xmlns="http://www.w3.org/2000/svg"
 width="1920.000000pt" height="1920.000000pt" viewBox="0 0 1920.000000 1920.000000"
 preserveAspectRatio="xMidYMid meet">
<metadata>
Created by potrace 1.16, written by Peter Selinger 2001-2019
</metadata>
<g transform="translate(0.000000,1920.000000) scale(0.100000,-0.100000)"
fill="#000000" stroke="none">
<path d="M9195 19174 c-618 -21 -1564 -180 -2175 -364 -483 -146 -955 -312
-1190 -418 -724 -327 -1105 -537 -1775 -982 -416 -277 -772 -576 -1255 -1058
-443 -441 -687 -724 -1026 -1189 -416 -569 -718 -1087 -1036 -1778 -111 -239
-287 -705 -386 -1020 -91 -286 -229 -836 -262 -1041 -17 -104 -44 -272 -60
-374 -29 -177 -30 -199 -30 -491 l0 -306 163 -6 c206 -7 768 7 1042 27 580 43
1065 121 1800 292 1112 258 2410 708 3688 1278 81 36 149 66 151 66 6 0 268
126 566 273 375 184 746 401 1110 648 515 349 998 845 1377 1414 220 330 410
723 555 1143 27 81 53 153 57 160 8 14 89 -92 195 -254 174 -268 316 -610 382
-926 65 -311 47 -673 -46 -950 -120 -354 -271 -600 -572 -928 -293 -319 -636
-579 -1138 -860 -114 -64 -597 -308 -730 -370 -52 -24 -151 -69 -220 -101 -69
-31 -174 -80 -235 -109 -141 -67 -337 -153 -495 -220 -69 -29 -143 -61 -165
-70 -240 -106 -1089 -452 -1260 -515 -49 -18 -178 -67 -285 -110 -275 -109
-370 -145 -820 -310 -278 -102 -378 -136 -785 -267 -268 -86 -295 -94 -510
-157 -243 -72 -751 -206 -930 -245 -33 -8 -141 -32 -240 -54 -433 -97 -1012
-192 -1382 -226 -256 -24 -566 -36 -931 -36 l-343 0 4 -227 c3 -218 5 -238 45
-448 71 -374 168 -796 191 -834 8 -12 -9 -14 466 30 595 54 778 74 1085 120
632 94 1267 223 1770 360 182 50 771 221 820 239 14 4 201 66 415 135 215 70
462 154 550 186 88 32 273 99 410 149 242 88 404 150 780 300 99 40 191 76
205 80 178 60 726 288 1405 585 452 197 512 224 640 282 66 31 212 97 325 148
693 314 1331 645 1680 873 714 466 1162 973 1400 1582 83 213 140 508 140 722
0 49 4 88 9 88 5 0 11 -3 13 -7 4 -10 168 -149 268 -228 326 -257 726 -630
906 -846 156 -185 284 -413 330 -585 38 -142 45 -367 16 -505 -25 -114 -81
-251 -144 -345 -65 -96 -205 -260 -268 -314 -99 -83 -279 -215 -378 -276 -206
-129 -624 -331 -1082 -524 -107 -45 -247 -105 -310 -132 -147 -64 -379 -164
-450 -193 -30 -12 -107 -44 -170 -69 -63 -26 -128 -54 -145 -61 -16 -8 -161
-68 -321 -134 -236 -97 -464 -194 -639 -271 -171 -75 -606 -265 -655 -285
-187 -78 -431 -188 -705 -317 -115 -55 -259 -123 -320 -151 -179 -84 -938
-463 -1079 -539 -72 -39 -205 -112 -296 -163 -91 -51 -253 -140 -360 -198
-107 -57 -222 -121 -255 -141 -33 -20 -64 -36 -68 -36 -5 0 -36 -20 -70 -44
-34 -24 -84 -55 -112 -70 -27 -15 -76 -43 -107 -64 -32 -20 -86 -55 -120 -76
-184 -115 -623 -411 -838 -565 -326 -232 -341 -244 -499 -371 -75 -60 -197
-157 -271 -216 -74 -60 -160 -128 -190 -152 -126 -100 -198 -160 -256 -212
-34 -30 -115 -102 -180 -160 -385 -341 -982 -936 -1174 -1170 -30 -36 -87
-102 -127 -147 l-74 -82 97 -113 c144 -166 465 -495 712 -730 246 -234 355
-328 381 -328 22 0 42 22 182 196 140 172 223 271 445 529 181 211 765 804
951 967 58 51 165 147 237 212 266 243 655 551 1145 906 57 41 156 114 220
161 64 47 130 94 146 104 25 16 153 98 295 191 19 12 85 53 145 90 61 37 130
81 155 98 44 30 62 41 220 138 41 25 143 82 225 126 83 44 213 115 290 157
432 239 1209 631 1565 790 47 20 146 66 220 100 74 35 191 89 260 120 69 32
153 70 187 86 34 16 86 38 115 50 29 11 148 63 263 116 116 52 282 124 370
160 88 36 234 97 325 135 735 311 1107 467 1185 498 82 32 202 84 545 233 354
154 403 177 685 317 289 143 478 256 675 405 347 261 519 458 674 770 156 312
209 536 210 888 1 81 4 147 8 147 5 0 29 -15 55 -34 27 -18 100 -63 163 -99
743 -419 1563 -638 2570 -687 113 -5 400 -10 638 -10 l432 0 0 141 c0 77 -4
170 -10 207 -5 37 -19 141 -31 232 -53 426 -101 709 -160 940 -228 887 -414
1402 -745 2070 -465 939 -1110 1841 -1823 2549 -565 560 -1061 960 -1711 1379
-264 171 -380 240 -535 322 -511 268 -860 428 -1235 567 -581 215 -1113 365
-1616 457 -416 76 -838 131 -1119 146 -200 11 -850 19 -1020 14z m1009 -2028
c-3 -9 -10 -16 -15 -16 -5 0 -9 -6 -9 -12 0 -7 -6 -24 -14 -38 -32 -61 -165
-286 -236 -400 -42 -69 -119 -192 -169 -275 -101 -164 -151 -235 -100 -140 18
33 39 67 46 77 14 15 59 95 85 148 7 14 25 44 40 67 15 23 28 45 28 49 0 4 10
21 23 38 13 17 43 67 67 111 52 96 130 219 142 223 5 2 27 41 50 85 41 84 58
110 65 104 2 -2 1 -12 -3 -21z m761 -267 c33 -44 70 -92 82 -106 12 -14 25
-34 28 -44 4 -11 11 -19 16 -19 5 0 9 -6 9 -14 0 -7 7 -19 15 -26 8 -7 49 -62
90 -124 133 -196 227 -330 269 -383 22 -28 66 -86 96 -128 52 -73 70 -97 146
-184 17 -20 59 -74 94 -121 56 -74 84 -107 150 -179 8 -9 46 -55 85 -101 38
-47 78 -91 87 -98 10 -7 18 -17 18 -22 0 -5 21 -31 48 -58 79 -83 152 -175
152 -192 0 -6 5 -8 10 -5 6 4 9 2 8 -3 -2 -5 27 -42 65 -81 37 -40 67 -76 67
-82 0 -5 9 -9 20 -9 11 0 20 -4 20 -9 0 -6 28 -39 63 -74 34 -36 73 -79 87
-96 32 -39 40 -47 95 -96 75 -66 161 -149 145 -140 -8 4 2 -8 24 -29 51 -49
39 -58 -16 -13 -71 59 -469 472 -546 567 -20 25 -60 70 -88 100 -29 30 -65 71
-80 90 -16 19 -91 107 -168 195 -76 88 -146 171 -154 185 -9 14 -37 50 -63 80
-25 30 -54 69 -65 85 -10 17 -21 32 -24 35 -12 11 -138 167 -185 230 -27 37
-77 102 -110 145 -64 82 -107 143 -220 308 -38 56 -120 174 -180 262 -113 163
-159 235 -153 235 2 0 30 -36 63 -81z m-1560 -1006 c-53 -76 -137 -190 -186
-253 -50 -63 -114 -145 -142 -181 -29 -37 -80 -102 -115 -145 -35 -44 -71 -88
-79 -99 -65 -81 -196 -225 -205 -225 -9 0 33 55 82 106 11 12 20 24 20 27 0 4
16 22 35 41 19 20 35 40 35 45 0 5 3 11 8 13 4 2 25 26 47 53 22 28 55 67 75
88 19 21 56 71 83 110 28 40 66 90 87 112 53 57 176 217 183 238 8 21 160 216
166 211 1 -1 -40 -65 -94 -141z"/>
<path d="M18595 8734 c-534 -23 -1012 -116 -1780 -345 -345 -103 -1002 -337
-1505 -536 -69 -28 -146 -58 -172 -67 -27 -10 -48 -21 -48 -26 0 -5 28 -11 63
-14 34 -3 143 -13 242 -21 848 -74 1992 -240 3065 -445 330 -63 441 -83 445
-78 10 10 164 695 195 870 24 139 77 499 86 591 l7 67 -80 0 c-44 0 -160 2
-259 4 -98 2 -215 2 -259 0z"/>
<path d="M12063 6470 c-150 -10 -213 -27 -378 -103 -71 -32 -182 -81 -245
-107 -63 -27 -155 -69 -205 -93 -105 -52 -279 -135 -455 -218 -138 -64 -481
-237 -492 -247 -8 -9 107 -108 227 -197 50 -36 115 -85 145 -109 30 -23 141
-105 245 -182 201 -146 218 -159 560 -434 353 -284 473 -385 605 -509 69 -64
197 -182 285 -260 204 -183 783 -766 930 -936 62 -72 144 -164 182 -205 81
-88 320 -363 348 -401 11 -15 94 -122 185 -238 185 -238 172 -221 405 -545 93
-130 173 -236 178 -236 4 0 40 24 80 53 40 29 140 99 222 155 222 151 330 228
425 300 611 469 1078 898 1478 1359 352 406 448 528 743 948 95 134 340 507
401 610 237 397 447 812 422 834 -5 5 -81 27 -169 50 -88 22 -227 59 -310 81
-82 22 -283 69 -445 104 -304 66 -345 74 -635 126 -93 17 -201 37 -240 45
-452 91 -1336 211 -1945 265 -63 5 -162 14 -220 20 -163 15 -498 39 -795 56
-306 18 -1335 27 -1532 14z"/>
<path d="M2740 6160 c-14 -5 -135 -28 -270 -50 -517 -86 -1172 -216 -1465
-292 -66 -17 -147 -36 -180 -42 -42 -8 -60 -16 -58 -26 2 -21 174 -393 267
-579 104 -208 239 -421 266 -421 4 0 52 48 106 108 267 293 443 477 618 644
322 308 443 413 661 576 120 89 133 109 55 82z"/>
<path d="M8719 4890 c-30 -22 -57 -40 -61 -40 -6 0 -196 -114 -326 -196 -196
-123 -715 -472 -816 -549 -66 -49 -140 -106 -165 -125 -25 -19 -98 -73 -161
-119 -96 -72 -362 -280 -434 -342 -12 -10 -71 -59 -132 -111 -347 -290 -629
-553 -931 -868 -162 -168 -421 -452 -490 -536 -21 -26 -64 -76 -96 -112 -32
-36 -79 -92 -105 -126 -25 -33 -80 -105 -122 -159 -94 -124 -160 -219 -160
-232 0 -11 66 -56 231 -158 229 -142 412 -237 800 -415 67 -31 508 -205 614
-242 549 -195 1153 -351 1685 -434 430 -68 1143 -126 1525 -126 719 1 1667
119 2305 286 385 101 875 260 1195 387 102 41 110 46 108 70 -3 52 -234 376
-527 742 -381 475 -744 870 -1225 1333 -324 312 -441 418 -776 701 -711 601
-1363 1091 -1871 1403 -6 4 -35 -11 -65 -32z"/>
</g>
</svg>
